<?xml version="1.0" encoding="utf-8"?>
<!-- Generator: Adobe Illustrator 19.0.0, SVG Export Plug-In . SVG Version: 6.00 Build 0)  -->
<svg version="1.1" id="Layer_1" xmlns="http://www.w3.org/2000/svg" xmlns:xlink="http://www.w3.org/1999/xlink" x="0px" y="0px"
	 viewBox="237 -243 507 510" style="enable-background:new 237 -243 507 510;" xml:space="preserve">
<style type="text/css">
	.st0{fill:#6E6E6E;}
	.st1{fill:none;stroke:#FFFFFF;stroke-width:59;}
	.st2{fill:#FFFFFF;}
	.st3{opacity:0.87;fill:#D7D7D7;enable-background:new    ;}
</style>
<g>
	<path class="st0" d="M310.5-238h360c38.7,0,70,31.3,70,70v360c0,38.7-31.3,70-70,70h-360c-38.7,0-70-31.3-70-70v-360
		C240.5-206.7,271.8-238,310.5-238z"/>
	<g>
		<ellipse class="st1" cx="491" cy="17.1" rx="173.5" ry="174.1"/>
		<path class="st2" d="M600.8,130l80.7,70.2L643,245l-80.7-70.2L600.8,130z"/>
	</g>
	<path class="st3" d="M724.3,151.2l-42.5,49.1l-157-134.9l-21.7,25.1l-31-26.8l21.6-24.9l0.2,0.1l-0.9-0.8
		c-129.6-94.5,20.9-183,20.9-183s34.7,28.4,34,29.5c-0.5,0.7-5.5,1.8-20.7,8.6c-2.8,1.3-7,4.5-10.1,7.1c-3.6,2.9-6.1,5.4-9.9,9.9
		c-24.4,29.4,3.9,53.6,3.9,53.6l27.2,23.6l40.6-46.9L610.4-32l-41.9,48.3L724.3,151.2z"/>
</g>
</svg>
