<svg version="1.1" class="clearos-svg clearfoundation app-vendor-quikfynd app-free app-category-server app-sub-category-file" viewBox="0 0 400 400" preserveAspectRatio="xMinYMin" xmlns="http://www.w3.org/2000/svg" xmlns:xlink= "http://www.w3.org/1999/xlink">
<path d="M91.666,184.647"></path>
<path d="M123.245,247.805"></path>
<path d="M91.666,184.647"></path>
<path d="M123.245,247.805"></path>
<path fill="#686868" d="M384.452,221.512l-90.501-43.57l0.161-129.3l-0.9,0.426l0.933-0.463L202.21,4.345l-93.05,45.377l0.09,0.045
    v127.799l-0.651-0.314l-93.051,45.377l0.09,0.045v128.777l91.02,44.054v0.15l92.905-44.202l91.016,44.052v0.15l93.681-44.572
    l0.162-129.534l-0.9,0.426L384.452,221.512z M283.771,168.875l-73.001,35.203V102.652l73.001-35.207V168.875z M201.813,15.077
    l69.611,33.261l-70.74,33.601l-67.692-32.782L201.813,15.077z M39.38,222.065l68.82-34.081l69.613,33.262l-70.741,33.601
    L39.38,222.065z M190.158,341.782l-73,35.203V275.56l73-35.206V341.782z M223.301,222.065l68.821-34.081l69.612,33.262
    l-70.741,33.601L223.301,222.065z M374.078,341.782l-73,35.203V275.56l73-35.206V341.782z"></path>
</svg>
